<svg data-name="Layer 1" xmlns="http://www.w3.org/2000/svg" width="471.64" height="535.28"><path d="M303.22 396.3a5.85 5.85 0 0 0 8.2-7.33l.32-1.61a15.73 15.73 0 0 1 26.44 12.3c-.73 17.64.14 36.68-11.58 50.9 53.52-43.73 77.92-118.24 61.58-185.25-8.02-11.17-11.77-26.02-8.17-39.47 4.51 4.39 13.31 3.21 11.97-4.39-.72-3-1.47-6-2.2-9 30.83-12.03 38.88 33.8 2.37 52.47a187.67 187.67 0 0 1 4.84 38.83A78.9 78.9 0 0 1 417 272.69c8.75-7.88 20.32-12.51 31.09-17.8 13.1-6.45 27.64 6.34 22.48 19.99-8.72-1.12-14.9 9.3-6.98 14.9-13.9 23.35-40.55 38.18-67.62 38.42a188.4 188.4 0 0 1-24.6 75.52c17.3-26.3 50.78-18.73 77.23-19.85a9.11 9.11 0 0 1 8.57 14.31 52.64 52.64 0 0 0-10.42.43 7.96 7.96 0 0 0-2.91 14.7c-23.2 21.27-59.17 25.84-87.39 12.27a193.69 193.69 0 0 1-28.09 28.69l-41.95-20c.07-.54.16-1.09.25-1.62a52.8 52.8 0 0 0 11.94 4.84c-4.48-17.06-9.46-27.05 4.61-41.19Zm-74.14-40.36a5.85 5.85 0 0 1-10.35-3.7l-.91-1.37a15.73 15.73 0 0 0-19.84 21.36c7.32 16.07 13.7 34.03 29.92 42.77-66.06-20.31-116.76-80.1-126.9-148.33 3.2-13.37 1.07-28.53-7.33-39.64-2.53 5.77-11.12 8-12.74.45-.46-3.05-.9-6.1-1.37-9.16-33.08.49-23.25 45.97 17.6 49.48a187.67 187.67 0 0 0 10.17 37.8 78.9 78.9 0 0 0-30.26-21.22c-11.07-4-23.54-3.92-35.5-4.76-14.57-1.03-23.2 16.3-13.28 27 7.65-4.33 17.3 3 12.08 11.17 21.68 16.37 51.96 20.06 77.12 10.06a188.4 188.4 0 0 0 51.26 60.67c-25.94-17.84-54.08 1.8-79 10.74a9.11 9.11 0 0 0-2.55 16.5 52.64 52.64 0 0 1 9.82-3.55 7.96 7.96 0 0 1 8.24 12.52c29.51 10.95 64.54 1.62 85.56-21.6a193.69 193.69 0 0 0 36.83 15.98l31.32-34.35c-.27-.47-.57-.94-.85-1.4a52.8 52.8 0 0 1-9.23 8.99c-2.29-17.5-1.44-28.63-19.8-36.41Zm8.06-145.14a5.85 5.85 0 0 0 2.72-10.66l-.63-1.52a15.73 15.73 0 0 1 28.8-4.53c9.23 15.05 20.57 30.37 18.77 48.71 20.04-66.14-1.24-141.6-52.17-188.1-12.89-4.81-24.27-15.05-28.78-28.23 6.19 1.13 12.84-4.75 7.48-10.31-2.27-2.1-4.56-4.16-6.83-6.25 18.88-27.17 51.12 6.39 31.21 42.24a187.67 187.67 0 0 1 25.67 29.53 78.9 78.9 0 0 1-.7-36.94c2.88-11.42 9.9-21.72 15.89-32.1 7.28-12.67 26.47-10.16 29.8 4.05-7.86 3.93-7.17 16.03 2.52 16.26 1.48 27.13-12.37 54.3-34.72 69.6a188.4 188.4 0 0 1 21.7 76.4c-.31-31.48 31.7-43.86 53.03-59.54a9.11 9.11 0 0 1 15.1 7.1 52.64 52.64 0 0 0-8.42 6.17 7.96 7.96 0 0 0 5.78 13.83c-7.4 30.6-34.7 54.44-65.7 58.9a193.69 193.69 0 0 1-7.32 39.48l-45.98 6.8-.7-1.49a52.8 52.8 0 0 0 12.62-2.64c-13.23-11.67-22.94-17.18-19.14-36.76Z" fill="#f2f2f2"/><path d="M283.39 196.05c-20.93 0-32.29-2.55-36.25-8.01-3.5-4.82-1.16-11.18 1.56-18.54 1.95-5.29 4.16-11.29 4.16-17.22 0-28.87 14.64-43.5 43.5-43.5 14.36 0 29.78 7.63 41.25 20.4 10.43 11.62 15.62 25.53 14.25 38.15-1.12 10.36-5.94 17.17-15.17 21.43l-.54.25-.15-.57a24.54 24.54 0 0 0-3.97-8.24 28.2 28.2 0 0 1-2.88 11.17l-.1.2-.21.06c-10.44 2.97-22.83 3.78-32.46 4.15q-7.03.27-13 .27Z" fill="#2f2e41"/><path d="M289.1 236.27a15.67 15.67 0 0 0-24.4-7.36l-68.85 41.16-21.55-52.57a15.3 15.3 0 1 0-16.9 6.08c1.33 15.16 8.7 82.92 34.38 80.45 21.58-2.07 75.18-37.76 91.82-50.14a15.67 15.67 0 0 0 5.5-17.62Z" fill="#ffb6b6"/><path d="M340.98 535.28h-59.93L271 485.58l-3.26 49.7h-55.67a1135.63 1135.63 0 0 1 6.1-116.83l.68-2.35 1.1-3.76.68-2.36 11.52-39.56.91-3.14h69.37a101.55 101.55 0 0 1 11.01 12.16c1.13 1.44 2.31 3 3.52 4.68.84 1.19 1.71 2.44 2.58 3.75a126 126 0 0 1 17.1 37.6q.92 3.44 1.62 7.04a102.4 102.4 0 0 1 1.63 11.4 112.1 112.1 0 0 1-.87 27.42Z" fill="#2f2e41"/><ellipse cx="385.51" cy="258.38" rx="7.56" ry="5.26" transform="rotate(-21.16 -284.7 1142)" fill="#e6e6e6"/><ellipse cx="434.52" cy="252.09" rx="7.56" ry="5.26" transform="rotate(-21.16 -235.7 1135.71)" fill="#3f3d56"/><ellipse cx="381.26" cy="300.19" rx="7.56" ry="5.26" transform="rotate(-21.16 -288.95 1183.8)" fill="#ff6584"/><ellipse cx="367.89" cy="318.88" rx="3.32" ry="4.78" transform="rotate(-13.32 -595.3 1787.58)" fill="#e6e6e6"/><ellipse cx="367.59" cy="350.11" rx="3.32" ry="4.78" transform="rotate(-13.32 -595.6 1818.8)" fill="#3f3d56"/><ellipse cx="410.6" cy="285.44" rx="3.32" ry="4.78" transform="rotate(-13.32 -552.59 1754.13)" fill="#e6e6e6"/><ellipse cx="384.79" cy="279.17" rx="3.32" ry="4.78" transform="rotate(-13.32 -578.4 1747.86)" fill="#ff6584"/><ellipse cx="412.15" cy="250.42" rx="3.32" ry="4.78" transform="rotate(-13.32 -551.04 1719.11)" fill="#3f3d56"/><ellipse cx="420.22" cy="466.27" rx="5.26" ry="7.56" transform="rotate(-49.6 40.78 769.2)" fill="#e6e6e6"/><ellipse cx="391.36" cy="426.17" rx="5.26" ry="7.56" transform="rotate(-49.6 11.92 729.1)" fill="#3f3d56"/><ellipse cx="459.01" cy="450.1" rx="5.26" ry="7.56" transform="rotate(-49.6 79.56 753.03)" fill="#ff6584"/><ellipse cx="481.82" cy="452.96" rx="4.78" ry="3.32" transform="rotate(-41.75 60.64 839.24)" fill="#e6e6e6"/><ellipse cx="509.41" cy="438.35" rx="4.78" ry="3.32" transform="rotate(-41.75 88.24 824.63)" fill="#3f3d56"/><ellipse cx="432.07" cy="431.32" rx="4.78" ry="3.32" transform="rotate(-41.75 10.89 817.6)" fill="#e6e6e6"/><ellipse cx="438.84" cy="457" rx="4.78" ry="3.32" transform="rotate(-41.75 17.67 843.28)" fill="#ff6584"/><ellipse cx="400.54" cy="446.63" rx="4.78" ry="3.32" transform="rotate(-41.75 -20.64 832.92)" fill="#3f3d56"/><ellipse cx="616.52" cy="207.2" rx="5.26" ry="7.56" transform="rotate(-26.19 42.42 898.87)" fill="#e6e6e6"/><ellipse cx="627.08" cy="255.47" rx="5.26" ry="7.56" transform="rotate(-26.19 52.98 947.14)" fill="#3f3d56"/><ellipse cx="574.5" cy="206.63" rx="5.26" ry="7.56" transform="rotate(-26.19 .4 898.3)" fill="#ff6584"/><ellipse cx="554.71" cy="194.94" rx="4.78" ry="3.32" transform="rotate(-18.34 -192.13 1231.57)" fill="#e6e6e6"/><ellipse cx="523.58" cy="197.39" rx="4.78" ry="3.32" transform="rotate(-18.34 -223.25 1234.01)" fill="#3f3d56"/><ellipse cx="591.77" cy="234.57" rx="4.78" ry="3.32" transform="rotate(-18.34 -155.07 1271.2)" fill="#e6e6e6"/><ellipse cx="595.75" cy="208.31" rx="4.78" ry="3.32" transform="rotate(-18.34 -151.08 1244.93)" fill="#ff6584"/><ellipse cx="626.79" cy="233.04" rx="4.78" ry="3.32" transform="rotate(-18.34 -120.05 1269.66)" fill="#3f3d56"/><path d="m273.26 204.09 33.02-1.7 15.34 24.23s28.85 4.82 26.85 38.82-35.1 63.84-35.1 63.84l1.4 17.7-2.45 7.03.32 3.94 3.35 4.18.34 4.32-2.97 6.83 4.04 6.54-84.93-8.23-3.1-11.31 4.52-6.08-2.53-7.92 3.8-7.62 2-24.21s-21.71-32.61 3.2-57.17l10-17 11.2-13.65Z" fill="#00d7ad"/><circle cx="289.68" cy="162.26" r="34.98" fill="#ffb6b6"/><path d="M285 160.14q-4.53 0-9.05-.25l-.53-.03.07-.54a24.5 24.5 0 0 0-.74-9.97 28.2 28.2 0 0 1-6.87 9.7l-.17.16-.22-.02a172.66 172.66 0 0 1-24.25-4.43l-.3-.07-.07-.31a45.78 45.78 0 0 1-.92-8.88c0-9.32 3.38-17.16 9.51-22.08 6.68-5.36 16.25-7 26.96-4.64h34.24a14.22 14.22 0 0 1 14.2 14.2v21.69l-.37.1a163.81 163.81 0 0 1-41.5 5.37Z" fill="#2f2e41"/><path d="M46.28 121.23a6.16 6.16 0 0 0-3.68 7.9l36.95 101.36a6.16 6.16 0 0 0 7.89 3.68l143.38-52.26a6.16 6.16 0 0 0 3.68-7.9L197.56 72.66a6.16 6.16 0 0 0-7.9-3.68Z" fill="#ccc"/><path d="m177.46 195.77-87.77 31.99a6.63 6.63 0 0 1-8.5-3.96l-33.5-91.94a6.63 6.63 0 0 1 3.96-8.5l135.28-49.3a6.63 6.63 0 0 1 8.5 3.96l16.18 44.42a57.26 57.26 0 0 1-34.15 73.33Z" fill="#fff"/><path d="m114.3 129.35-20.85 7.6a2.12 2.12 0 1 1-1.45-3.98l20.86-7.6a2.12 2.12 0 0 1 1.45 3.98Zm49.73-8.89L96.42 145.1a2.12 2.12 0 1 1-1.45-3.98l67.6-24.64a2.12 2.12 0 0 1 1.46 3.98Zm3.41 9.35-67.61 24.64a2.12 2.12 0 1 1-1.45-3.98l67.6-24.64a2.12 2.12 0 0 1 1.46 3.98Zm3.4 9.35-67.6 24.64a2.12 2.12 0 1 1-1.46-3.98l67.61-24.64a2.12 2.12 0 0 1 1.45 3.98Zm3.41 9.35-67.6 24.64a2.12 2.12 0 1 1-1.46-3.98l67.61-24.64a2.12 2.12 0 0 1 1.45 3.98Z" fill="#00d7ad"/><path d="m388.77 174.48-37.01 88.58a15.5 15.5 0 0 1-20.07 8.36 15.5 15.5 0 0 1-8.26-20.92l41.27-90.84 22.75-56.25a13.52 13.52 0 1 1 17.3 1.52Z" fill="#ffb6b6"/></svg>