<svg data-name="Layer 1" xmlns="http://www.w3.org/2000/svg" width="1009.54" height="766.62"><defs><linearGradient id="a" x1="625.8" y1="769.51" x2="625.8" y2="88.59" gradientUnits="userSpaceOnUse"><stop offset="0" stop-color="gray" stop-opacity=".25"/><stop offset=".54" stop-color="gray" stop-opacity=".12"/><stop offset="1" stop-color="gray" stop-opacity=".1"/></linearGradient></defs><path d="M239.82 639.76c-8.5-.86-17.38-1.78-25.43.47s-14.72 8.82-12.33 15.1c5.34 14 36.68 4.25 51.13 13.82 5.16 3.42 7.17 8.8 11.2 13 6.52 6.82 17.73 10 28.55 11.75 65 10.51 139.1-16.54 196.07 9.51 18.45 8.44 33 21.87 53.23 27.5 26.8 7.46 56.15-.51 83.88-5.62a410.28 410.28 0 0 1 104.89-5.5c25.93 2 60.42 2.67 68.72-16.16 5.34-12.11-5.96-25.59-20.96-31.32s-32.56-5.55-49.31-5c-32.33 1.16-64.67 3.5-97 2.36-62.52-2.22-121.58-27-182.46-27.82-70.9-.86-138.95 5.09-210.18-2.09Zm-65.73-313.45c-10 10.11-10.61 25.61-10.61 25.61s15.49-.88 25.45-11 10.62-25.61 10.62-25.61-15.5.91-25.46 11Zm40.25-249.76c3.53 13.75 16.48 22.3 16.48 22.3s7.23-13.73 3.7-27.48-16.48-22.29-16.48-22.29-7.27 13.73-3.7 27.47Zm584.84 37.82c-10 10.11-10.62 25.61-10.62 25.61s15.5-.88 25.46-11 10.61-25.62 10.61-25.62-15.49.95-25.45 11.01ZM494.39 256.05c-1.16 14.14 8.27 26.46 8.27 26.46s11.33-10.61 12.49-24.76-8.27-26.44-8.27-26.44-11.33 10.59-12.49 24.74Zm328.06 198.31c-1.16 14.14 8.27 26.46 8.27 26.46s11.33-10.61 12.49-24.75-8.27-26.46-8.27-26.46-11.33 10.61-12.49 24.75Z" fill="#6c63ff" opacity=".1"/><path d="M586.55 96.38c-64.72-1.95-126.36-20-185.22-39.8S284.17 14.89 221 4.41c-40.63-6.74-87.1-7.69-119.83 11.16C69.66 33.7 59.48 65.01 54.01 94.06c-4.12 21.85-6.54 44.85 4.74 65.31 7.84 14.21 21.74 26.15 31.36 39.75 33.47 47.35 9.81 105.73-26.45 152-17 21.69-36.75 42.37-49.88 65.46s-19.2 49.53-7.71 73.07c11.38 23.34 38.51 40.87 67.9 53.2 59.69 25 130 32.21 198.61 36.27 151.83 9 304.46 5.1 456.69 1.2 56.34-1.44 112.92-2.9 168.34-10.44 30.78-4.18 62.55-10.82 84.9-26.86 28.36-20.36 35.39-54.83 16.38-80.36-31.88-42.81-120-53.45-142.31-99.4-12.26-25.29.33-53.46 18.16-76.92 38.24-50.32 102.33-94.47 105.7-152 2.32-39.5-28.49-79.06-76.13-97.75-49.93-19.6-119.18-17.13-156 15.3-37.95 33.35-104.61 46.2-161.76 44.49Z" fill="#6c63ff" opacity=".1"/><path d="M896.32 351.32a9 9 0 0 0-6.14 5.41l-1-.16-3.73-.6s-19.76-1.63-23.45-1.38-6-3.39-6-3.39l-14.69-12.43-1.14-1c1.59-.6 2.58-.91 2.58-.91s-39.42-49-47.92-49.95-22.55-12.39-22.69-12.5l-.15-.78a59.55 59.55 0 0 1-.71-5l2.09 1.28c0-.58 0-1.16.06-1.74a31.64 31.64 0 0 1 5.88-16.8c4.11-5.7 10.19-10.18 12.62-16.75a24.21 24.21 0 0 0 1.29-8.79 29.3 29.3 0 0 0-4.1-15.29 19.1 19.1 0 0 0-12.9-8.9c-1.4-.22-2.83-.25-4.21-.57-8.21-1.93-11.23-12.94-19.21-15.64-3.72-1.26-7.86-.43-11.45 1.13s-6.84 3.8-10.35 5.53-7.49 3-10.68 5.45c-.33.25-.68.55-1 .86l-.63.61a22.64 22.64 0 0 0-3.41 4.45l-.15.25-.28.53-.21.42-.23.48-.21.48-.18.46c-.06.17-.13.34-.18.52l-.14.44-.15.53-.09.43c0 .18-.07.37-.1.55s0 .27 0 .4v1.85a6.09 6.09 0 0 0 .18.87c.54 1.84 2.4 3.72 3.82 5.36l-.48.45a34.86 34.86 0 0 0-10.67 25.11 34.4 34.4 0 0 0 .57 6.21 33.32 33.32 0 0 0-5.83-3.53 50.89 50.89 0 0 0-21.69-5c-12.25-.14-29.46-4.74-29.46-4.74a11.7 11.7 0 0 1 1 2.65c-.75-.43-1.56-.89-2.45-1.37a71.82 71.82 0 0 0-23-7.7s-5.1.71-5.78-10a45.41 45.41 0 0 0-1.8-9.87 168.22 168.22 0 0 1-6.06-30L610 163.52s7.7-41 3.07-58.48c1.49-5.48.65-10.5-4.26-14.11-19.37-14.26-38.91 41.24-38.91 41.24l-7.26 7.05a15.58 15.58 0 0 0-6.16-2.35s-3.91 4-6.63 14.92c-1.44 5.79-11.28 15.46-20.18 23.25a635.26 635.26 0 0 0-18.51 17.05c-4.5 4.28-14.53 10.4-36.41 13.86-3.43.54-6.55 1.05-9.4 1.52a29.33 29.33 0 0 0 1.1-7.94 29.78 29.78 0 0 0-23.36-28.93 7.46 7.46 0 0 0 0-2.11 8.74 8.74 0 0 0-2.21-4c-4.61-5.7-9.61-11.56-16.47-14.26a21.45 21.45 0 0 0-8.89-1.43h-2.44a22.78 22.78 0 0 0-16.66 8.68c-2.46 3.29-3.94 7.19-6.06 10.7-3.94 6.5-10 11.51-16.57 15.47-3.95 2.39-8.1 4.45-11.83 7.16-13.53 9.83-19.77 28-16.37 44.24 1.5 7.13 4.67 14.15 3.82 21.38-.67 5.61-3.69 10.65-6.77 15.41s-6.34 9.6-7.56 15.11.06 12 4.68 15.34c1.7 1.22 3.76 2 5.21 3.48a16.7 16.7 0 0 1 2.4 3.76 37.42 37.42 0 0 0 23.27 18.08 17 17 0 0 0 4.76.52h.48c3.67.23 7.43-.75 8.66-4a9.08 9.08 0 0 1 .83-2.12 2.49 2.49 0 0 1 1.45-1 13.32 13.32 0 0 1 3.39 1.28 43.12 43.12 0 0 0 16.48 4.71 23.2 23.2 0 0 0 2.89.05 12.78 12.78 0 0 0 5.89-.84 12.62 12.62 0 0 0 4.53-3.88c.26-.33.5-.68.75-1a82.71 82.71 0 0 1-7.38 23s-6 10-5.57 20.08a20.17 20.17 0 0 0 2.25 10.6s.17-.44.52-1.13c1.72 2.88 7.36 12.09 11.06 15.32.18 9.51.14 21.42-1.05 23.87-2 4.19-8.32 34 18.86 54.33l6.27 13.73-25.81 1.83c-2.61-.36-36.36-4.9-36.53 1.71-.17 6.87 5.1 73.77 22.6 69.24 16.31-4.22 10.93-23.73 10.12-26.35l.58-.16-.64-.18 13.05-12.37a5.78 5.78 0 0 0-1-4.29l.13-.07 31.52 1.41 7.41 16.1s12.57 19.12 2.38 35.21-20.73 41.25-22.43 56.51c-1.39 12.48-10.63 24.74-13.94 28.78-5.91 2-28.58 10.9-19.53 24.37 10.36 15.42 44 44.77 57.6 43.76s8.15-10.9 8.15-10.9L468 694.71s-2-23.48-1.19-30.35c.44-3.57-2.19-6.14-5-7.23 1.07-7.65 3.78-22.15 9.6-30.16 8.15-11.24 34.32-60.7 34.32-60.7s8.32-7.38 6.45-29.34a504.6 504.6 0 0 1-1.41-22.79l29.62 1.33s31.77-3.19 10.19-37.23-67.45-67.4-67.45-67.4l-.41-21.07c2.08.52 3.3.78 3.3.78l-.48-2.12.48.11s-6.63-28.69-8.67-51.5l1.87.86c19.71 22.81 33 3.53 33 3.53s41.63-58.52 37.55-55.84a3.54 3.54 0 0 1-2.74.17l3-9.56s12.29-18.78-5.55-29.34c-14.56-8.62-14.18 18.4-13.55 28.61l-.72-.61s-13.93 21-21.41 32.7-13.76 4-13.76 4l-9.45-10.65a37.41 37.41 0 0 0 2.25-13.32 22.63 22.63 0 0 0-6.39-17.28c-7.21-7.35-9.32-14.47-9.54-19.95a21.12 21.12 0 0 1 1.89-8.22l49.11-26s10.36.16 24.29-21.3a368.42 368.42 0 0 1 29.74-39.23s-.29-.42-.79-1.11l.79-.91s-.57-.83-1.54-2.11l7.57-8.73a112 112 0 0 0-.09 11.85l3.92 13.25 2.2 73.77s-2.38 7 12.92 14.09c12.94 6 33.44 16 39.42 18.95l-.35.83 1.78-.12.26.12c29.89-2.68 28.87 27.16 28.87 27.16s2 60.7-7.13 81.83-7.82 47.28-7.82 47.28.91-4.46 6 1.37l-.33 1.63c-2.92 14.63-9 45.75-10.13 58.37a204.52 204.52 0 0 1-6.63 34l-3 55.83 19.11.93-.21 2a6.28 6.28 0 0 1-3.24 4.87c-6.54 3.55-22 16-20.76 54.42l-.66 6.18a77.64 77.64 0 0 1-9.33 29.81c-.44.78-.83 1.53-1.16 2.25a1.84 1.84 0 0 1 .52-1.07s-9.93 2.06-7.89 28.89 5.1 31.52 9.18 31.85 24 5.2 22.93-4.69-2-31.86-.68-35.21 6.74-12.39 1.6-14.57a76.64 76.64 0 0 0 2.15-18.8s10-15.76 17.15-21.63 11-15.84 13.59-28.67c.18-.84 21.07-14.76 18-26.32a69.72 69.72 0 0 1-1.57-7.37h.37l4.25-25.49v24.82l2.52.33-.09 2-1.07 23.8a39.18 39.18 0 0 1-3 13.48c-4.5 10.65-12.8 34.36-10.54 60l-.24 22.86c-.72.14-11.1 2.59-9.13 28.5 2 26.82 5.09 31.52 9.17 31.85s24 5.2 22.94-4.69-2-31.86-.68-35.21 3.7-12.21-1.44-14.39a19.16 19.16 0 0 1 2.14-8.63c2.24-3.81 9.72-21.92 15.35-35.85a128.31 128.31 0 0 0 9.45-44.33v-.51a41.56 41.56 0 0 1 3.25-14.93 96.28 96.28 0 0 0 5.44-16.41c.14-.67.25-1.32.35-2l4.88.65 16.66-72.1s4.56-39.08 2.33-56.73a34.4 34.4 0 0 0-.31-2.05l1 .09s3.4-8.71 2.38-45.94 6.8-49 6.8-49c4.22-13.38 8.88-17.86 11.6-19.36a4.91 4.91 0 0 1 2.33-.76l12.61 14.43 2.32 2.66a.86.86 0 0 0 0-.16l1 1.17a10.78 10.78 0 0 1-.08-1.79c6.73 3.91 22.28 13.05 31.56 19.61 12.1 8.55 15.42 7.55 26 6.66 6.42-.53 15.1-4.13 20.92-6.87l.53-.25a25.54 25.54 0 0 0 4.92 2s17.08 14.47 18.73-11.94-20.49-20.03-20.49-20.03Zm-443 307.56a24.7 24.7 0 0 1-5-2.11ZM426.58 373l.06 3.75-.26.12c.08-1.32.14-2.62.2-3.87Zm267.14 334.72v1.46a1.07 1.07 0 0 1 0-1.46Z" transform="translate(-95.23 -66.69)" fill="url(#a)"/><path fill="#ff7590" d="M624.01 201.63h29v30.5h-29z"/><path d="M588.77 553.8c-2.55 12.75-6.33 22.66-13.33 28.5s-16.83 21.5-16.83 21.5c-.17 20.83-5.67 27.16-5.67 27.16l-5.67 1.5h-14s-2.5-7-3-11.16c-.17-1.39.82-3.72 2.2-6.22a77.92 77.92 0 0 0 9.15-29.63l.65-6.15c-1.18-38.17 14-50.56 20.37-54.09a6.24 6.24 0 0 0 3.17-4.84l1.13-10.91 37.66 1.85s-.8 3.32.63 11a70.4 70.4 0 0 0 1.2 5.33c3 11.49-17.5 25.32-17.66 26.16Zm63.86-26.36a97.09 97.09 0 0 1-5.33 16.31 41.88 41.88 0 0 0-3.2 14.84v.51a129.17 129.17 0 0 1-9.27 44.06c-5.53 13.84-12.86 31.85-15.06 35.64-3.66 6.33-1.5 17-1.5 17l-21.2-1.5.37-35.67c-2.21-25.47 5.93-49 10.34-59.63a39.08 39.08 0 0 0 3-13.39l1-23.66.31-7s37.48-5.33 40.64 3.17c.87 2.25.66 5.6-.1 9.32Z" fill="#8e5362"/><path d="m605.23 522.31-39.46-1.94 1.13-10.91 37.7 1.85s-.83 3.31.63 11Zm47.4 5.13-40.86-5.49.31-7s37.48-5.33 40.64 3.17c.88 2.25.67 5.6-.09 9.32Z" opacity=".1"/><path d="m674.1 454.46-16.33 71.67-48.33-6.5v-24.67l-4.18 25.35-58-2.84 3-55.5a205.85 205.85 0 0 0 6.5-33.83c1.13-12.54 7.07-43.47 9.94-58 1-4.79 1.56-7.81 1.56-7.81s99.34 20.66 105.84 28.16c1.11 1.28 1.84 4 2.29 7.61 2.18 17.52-2.29 56.36-2.29 56.36Z" fill="#bdd2e8"/><path d="M558.1 459.13s39.1-20.5 48.63-16.17Zm21.33-67s32.5 24.67 33.5 31.33Zm-8.83 85s23.5-1 31 5Zm42.33-26.38s11.17 36.56 6.33 46.56-9.83-2.34-9.83-2.34Z" opacity=".1"/><path d="M597.24 641.31s-11 1.67-9 28.33 5 31.34 9 31.67 23.5 5.17 22.5-4.67-2-31.66-.67-35 3.63-12.13-1.41-14.3l-1.09 5.14s-10.67-9.84-17-2.67a27.7 27.7 0 0 0-1.31-5.13c-.63-1.56-2.01-2.37-1.02-3.37Z" fill="#494457"/><path d="M798.55 314.13s-2.52 1.41-6.22 3.17c-5.71 2.72-14.22 6.3-20.52 6.83-10.38.88-13.63 1.88-25.5-6.62-9.11-6.52-24.36-15.61-31-19.49l-2.89-1.71-.29-.17v-.12l5.51-15.14 19.5-10.37 4.84 4.15 14.41 12.35s2.25 3.62 5.88 3.37 23 1.37 23 1.37l3.66.6 7.71 1.28Z" fill="#8e5362"/><path d="M798.55 314.13s-2.52 1.41-6.22 3.17c-3.91-2-8.77-5.75-6.9-11.92 1.69-5.55 2.15-9.88 3.54-13l7.71 1.28Z" opacity=".1"/><path d="M795.93 287.13s21.75-6.25 20.13 20-18.38 11.88-18.38 11.88-14.25-3.75-11.25-13.63 2.13-15.87 9.5-18.25Zm-225.5-85-22.66 9.52-.35.15-.25-.12-1.41-.71c-5.86-2.92-26-12.91-38.67-18.84-15-7-12.67-14-12.67-14l-2.16-73.33-3.84-13.17s-2.71-44.64 19-55.83 7.67 64.66 7.67 64.66l1.68 15.76a168.78 168.78 0 0 0 5.95 29.77 46.24 46.24 0 0 1 1.76 9.81c.67 10.66 5.67 9.95 5.67 9.95a69.61 69.61 0 0 1 22.54 7.66 56.38 56.38 0 0 1 7.46 4.72Zm80.67 35-19.34-2s5.7-8.48 8.21-16.73a28.42 28.42 0 0 0 .85-3.45c.58-3.27.43-6.3-1.06-8.49-5.66-8.33 33.67-20 33.67-20a96.07 96.07 0 0 0-.43 13.88 70.23 70.23 0 0 0 1 9.61c1.19 6.47 3.56 12.56 8.08 15.68 12.35 8.5-30.98 11.5-30.98 11.5Z" fill="#8e5362"/><path d="m651.1 237.13-19.34-2s5.7-8.48 8.21-16.73c2.23 3.17 3 3.1 6.13 3.73 0 0 19.52 2.89 27.92-12.18 1.19 6.47 3.56 12.56 8.08 15.68 12.33 8.5-31 11.5-31 11.5Zm64.25 60.89a10.71 10.71 0 0 0 .08 1.78l-3-3.49-.25-.29 5.51-15.14 19.5-10.37 4.84 4.15c-6.93 2.65-26.37 11.06-26.68 23.36Zm-144.92-95.89-22.66 9.52h-.6l-1.75.12s.13-.29.34-.83c1.89-4.59 10.66-27 6.87-37.56a56.38 56.38 0 0 1 7.46 4.72Zm105.96 195.94c-8.82-.79-97.06-8.95-105.29-21.94a45.64 45.64 0 0 0-4.4-6c1-4.79 1.56-7.81 1.56-7.81s99.34 20.66 105.84 28.16c1.11 1.26 1.84 3.97 2.29 7.59Z" opacity=".1"/><path d="M646.1 223.13s19.73 2.92 28.07-12.41c0 0 13.93 11.44 22.26 12.42s47 49.66 47 49.66-31 10-29 26l-14.67-17s-7.33-.34-13.66 20c0 0-7.67 11.66-6.67 48.66s-2.33 45.67-2.33 45.67-97.34-8.33-106-22-10-7-10-7-1.34-26 7.66-47 7-81.33 7-81.33 1-29.67-28.33-27c0 0 12.33-28.67 6.67-39.67 0 0 16.87 4.58 28.89 4.72a49.42 49.42 0 0 1 21.28 5c3.61 1.77 6.94 4 8.83 6.66 5.66 8 15 4.34 15 4.34a151.41 151.41 0 0 0 8.7 21.33c.39.73.78 1.45 1.18 2.14.58 1 1.18 2 1.78 2.82 2.4 3.43 3.08 3.34 6.34 3.99Z" fill="#ff7590"/><path d="M673 200.31a34.24 34.24 0 0 1-3.54 4.25 34.89 34.89 0 0 1-25 10.54 35.91 35.91 0 0 1-3.61-.18c.58-3.27.43-6.3-1.06-8.49-5.66-8.33 33.67-20 33.67-20a96.07 96.07 0 0 0-.46 13.88Z" opacity=".1"/><path d="M679.43 179.13a35 35 0 1 1-35-35 34.87 34.87 0 0 1 35 35Z" fill="#8e5362"/><path d="m696.77 259.13.72 23.42s10.45-8.42 10.78-16.42-11.5-7-11.5-7Zm-84.34 23.42s27.5 37.75 43.5 41.58-37.5-29.34-43.5-41.58Zm29.17 3.93s15.33 17.32 26.33 19.48Zm-54 43.65s28 27.5 44 29.17Zm91.83-151a34.87 34.87 0 0 1-10 24.46l-3.84-2.39a10.62 10.62 0 0 1-3.74-3.25c-1.27-2.12-.9-4.78-.8-7.25.21-5.23-1.23-10.89-5.32-14.16-6.63-5.31-17.26-2.37-24-7.58a23.66 23.66 0 0 1-4.25-4.73l-6.32-8.47c-.38-.5-.84-1-1.33-1.59a35 35 0 0 1 59.54 25Z" opacity=".1"/><path d="M623.34 134.31c3.13-2.39 6.95-3.65 10.47-5.41s6.63-4 10.15-5.5 7.59-2.38 11.24-1.13c7.83 2.69 10.79 13.63 18.84 15.55 1.36.32 2.76.35 4.13.56a18.8 18.8 0 0 1 12.65 8.85 29.46 29.46 0 0 1 4 15.21 24.37 24.37 0 0 1-1.27 8.73c-2.38 6.53-8.35 11-12.38 16.65a31.66 31.66 0 0 0-5.79 18.49l-9.76-6.07a10.52 10.52 0 0 1-3.74-3.25c-1.27-2.12-.9-4.78-.8-7.25.21-5.23-1.23-10.89-5.31-14.16-6.64-5.31-17.27-2.37-24-7.58a23.66 23.66 0 0 1-4.25-4.73l-6.32-8.47c-1.37-1.84-4-4.13-4.6-6.37-1.33-4.82 3.22-11.41 6.74-14.12Z" fill="#362133"/><path d="M666.71 199.11a10.52 10.52 0 0 1-3.74-3.25c-1.27-2.12-.9-4.78-.8-7.25.21-5.23-1.23-10.89-5.32-14.16-6.63-5.31-17.26-2.37-24-7.58a23.66 23.66 0 0 1-4.25-4.73l-6.32-8.47c-1.38-1.84-4-4.13-4.6-6.37-1.09-3.86 1.67-8.89 4.62-12.11-3.31 3.06-6.94 8.87-5.71 13.2.64 2.24 3.23 4.53 4.6 6.37l6.32 8.47a23.66 23.66 0 0 0 4.25 4.73c6.71 5.21 17.34 2.27 24 7.58 4.08 3.27 5.52 8.93 5.31 14.16-.1 2.47-.47 5.13.8 7.25a10.52 10.52 0 0 0 3.74 3.25l9.76 6.07c0-.58 0-1.16.06-1.73Z" opacity=".1"/><path d="M531.84 616.25s-9.74 2-7.74 28.71 5 31.34 9 31.67 23.5 5.17 22.5-4.67-2-31.66-.67-35 6.61-12.31 1.57-14.48l-4.07 5.32s-10.67-9.84-17-2.67c0 0-5.92-6.55-3.59-8.88Z" fill="#494457"/><path d="M538 632.81c2.11 1 4.08 2.22 6.18 3.22a13.87 13.87 0 0 0 6.71 1.58 4.68 4.68 0 0 0 2.74-.95m48.47 22.27c1.25 1.15 2.22 2.62 3.63 3.57 2 1.34 4.56 1.42 7 1.45a2.84 2.84 0 0 0 1.2-.15 2.92 2.92 0 0 0 1.07-1l1.31-1.69" opacity=".1"/><path d="M437.77 215.46s-4.5-42.66 13-32.16 5.45 29.16 5.45 29.16l-4.11 13.17Zm28-136.33 10-9.82s19.17-55.17 38.17-41-24.08 50-24.08 50l-11.42 13.33Z" fill="#ffc1c7"/><path d="m319.43 297.31-.5 11.33s9.17 16 13 17.17 3.5-33.84 3.5-33.84Z" fill="#ff5374"/><path d="m319.43 297.31-.5 11.33s9.17 16 13 17.17 3.5-33.84 3.5-33.84Z" opacity=".1"/><path fill="#ffc1c7" d="m334.76 284.87.68 41.76h46.49l-3.5-24.33-43.67-17.43z"/><path d="m345.6 389.13 2.17 13.33 27.17 60.34s12.33 19 2.33 35-20.33 41-22 56.16-14.83 30-14.83 30l28.67 12.17s2-23.83 10-35 33.66-60.33 33.66-60.33 8.17-7.34 6.34-29.17-1.67-37.17-1.67-37.17l-2.83-34.83Z" fill="#575988"/><path d="m345.6 389.13 2.17 13.33 27.17 60.34s12.33 19 2.33 35-20.33 41-22 56.16-14.83 30-14.83 30l28.67 12.17s2-23.83 10-35 33.66-60.33 33.66-60.33 8.17-7.34 6.34-29.17-1.67-37.17-1.67-37.17l-2.83-34.83Z" opacity=".1"/><path d="M342.93 582.13s-30.67 9.33-20.5 24.67 43.17 44.5 56.5 43.5 8-10.84 8-10.84l-11.17-11s-2-23.33-1.16-30.16-9.5-10-10.84-6-20.83-10.17-20.83-10.17Z" fill="#c4747b"/><path d="m362.26 308.89-24.31 2.69a8.72 8.72 0 0 0-7.76 8.89c.26 9.72.43 25.18-.93 28-2 4.17-8.16 33.84 18.5 54l36.17 11.5-58 4.17 1.84 32.17 9-5 110 5s31.17-3.17 10-37-66.16-67-66.16-67l-.5-26.34-3.34-7.66Z" fill="#575988"/><path d="M392.43 413.46a31.24 31.24 0 0 1 25 0Z" opacity=".1"/><path d="M328.77 417.96s-35.83-5.16-36 1.67 5 73.33 22.17 68.83 9.83-26.5 9.83-26.5l12.84-12.33s1.33-6.83-7.17-6.17Z" fill="#c4747b"/><path d="m388.1 231.46 14.16 16.17s6.17 7.67 13.5-4 21-32.5 21-32.5 15.17 13.33 19.17 10.67-36.83 55.51-36.83 55.51-13 19.16-32.34-3.5l-5.66-2.67Z" fill="#ff5374"/><path d="m388.1 231.46 14.16 16.17s6.17 7.67 13.5-4 21-32.5 21-32.5 15.17 13.33 19.17 10.67-36.83 55.51-36.83 55.51-13 19.16-32.34-3.5l-5.66-2.67Z" opacity=".1"/><circle cx="344.78" cy="136.25" r="29.5" fill="#ffc1c7"/><path d="M344.77 152.13s-25.35 12-22.35 33 3.5 47.5 3.5 47.5 11.51 17-3.75 49.5c0 0-9.75 16.5-3.25 28.5 0 0 7.21-19 25.85-5s48.65 20.5 48.65 20.5-15.5-68-6-77.5c0 0 16.5-24.5 1.5-40s-7.5-30-7.5-30l48.17-25.83s10.16.16 23.83-21.17a367.33 367.33 0 0 1 29.17-39s-10.34-15.5-20-16.67c0 0-3.84 4-6.5 14.84-1.42 5.75-11.07 15.36-19.8 23.11a558.89 558.89 0 0 0-18.15 17c-4.42 4.25-14.26 10.33-35.72 13.77-35.32 5.63-37.65 7.45-37.65 7.45Z" opacity=".1"/><path d="M344.77 150.13s-25.35 12-22.35 33 3.5 47.5 3.5 47.5 11.51 17-3.75 49.5c0 0-9.75 16.5-3.25 28.5 0 0 7.21-19 25.85-5s48.65 20.5 48.65 20.5-15.5-68-6-77.5c0 0 16.5-24.5 1.5-40s-7.5-30-7.5-30l48.17-25.83s10.16.16 23.83-21.17a367.33 367.33 0 0 1 29.17-39s-10.34-15.5-20-16.67c0 0-3.84 4-6.5 14.84-1.42 5.75-11.07 15.36-19.8 23.11a558.89 558.89 0 0 0-18.15 17c-4.42 4.25-14.26 10.33-35.72 13.77-35.32 5.63-37.65 7.45-37.65 7.45Z" fill="#ff5374"/><path d="M366.6 275.8s19.66 29 20.16 34c.01 0-2.99-31.17-20.16-34Zm-25.83-97.67s13.71 16.5 33.52 2.67a42.49 42.49 0 0 1-33.52-2.67Z" opacity=".1"/><path d="M351.4 105.4a8.85 8.85 0 0 0-2.16-4c-4.52-5.67-9.43-11.49-16.16-14.18a22.34 22.34 0 0 0-25.49 7.26c-2.42 3.26-3.86 7.14-5.95 10.63-3.86 6.46-9.83 11.44-16.25 15.38-3.87 2.37-7.95 4.42-11.6 7.11-13.27 9.77-19.4 27.83-16.06 44 1.47 7.08 4.58 14.06 3.74 21.25-.65 5.58-3.62 10.58-6.63 15.32s-6.22 9.54-7.42 15 .06 11.93 4.59 15.24c1.67 1.22 3.68 2 5.11 3.46a16.61 16.61 0 0 1 2.35 3.74 36.77 36.77 0 0 0 22.83 18c4.3 1.13 10.07.72 11.64-3.44a9 9 0 0 1 .81-2.11c1.42-2 4.55-.88 6.75.27a41.79 41.79 0 0 0 16.13 4.63 13.45 13.45 0 0 0 6.61-.79 12.21 12.21 0 0 0 4.45-3.85c5.26-6.85 6.77-15.8 7.67-24.39.59-5.59 1-11.28-.07-16.8-1.7-8.86-7.09-17.14-6.29-26.12.85-9.6 8.64-17.45 9.83-27a20.59 20.59 0 0 0-3.51-14.19 20.29 20.29 0 0 1-2.67-4.18 4.15 4.15 0 0 1 .8-4.59 7 7 0 0 1 2.08-1c6.43-2.47 9.86-8.91 10.32-15.5.18-2.5 0-4.8.69-7.24 1.1-3.77 4.43-7.89 3.86-11.91Z" opacity=".1"/><path d="M349.4 105.4a8.85 8.85 0 0 0-2.16-4c-4.52-5.67-9.43-11.49-16.16-14.18a22.34 22.34 0 0 0-25.49 7.26c-2.42 3.26-3.86 7.14-5.95 10.63-3.86 6.46-9.83 11.44-16.25 15.38-3.87 2.37-7.95 4.42-11.6 7.11-13.27 9.77-19.4 27.83-16.06 44 1.47 7.08 4.58 14.06 3.74 21.25-.65 5.58-3.62 10.58-6.63 15.32s-6.22 9.54-7.42 15 .06 11.93 4.59 15.24c1.67 1.22 3.68 2 5.11 3.46a16.61 16.61 0 0 1 2.35 3.74 36.77 36.77 0 0 0 22.83 18c4.3 1.13 10.07.72 11.64-3.44a9 9 0 0 1 .81-2.11c1.42-2 4.55-.88 6.75.27a41.79 41.79 0 0 0 16.13 4.63 13.45 13.45 0 0 0 6.61-.79 12.21 12.21 0 0 0 4.45-3.85c5.26-6.85 6.77-15.8 7.67-24.39.59-5.59 1-11.28-.07-16.8-1.7-8.86-7.09-17.14-6.29-26.12.85-9.6 8.64-17.45 9.83-27a20.59 20.59 0 0 0-3.51-14.19 20.29 20.29 0 0 1-2.67-4.18 4.15 4.15 0 0 1 .8-4.59 7 7 0 0 1 2.08-1c6.43-2.47 9.86-8.91 10.32-15.5.18-2.5 0-4.8.69-7.24 1.1-3.77 4.43-7.89 3.86-11.91Z" fill="#bb7684"/><path d="M289.77 258.01a9.43 9.43 0 0 0-.82 2.11c-.93 2.48-3.36 3.62-6.07 3.9 3.77.38 7.8-.53 9.07-3.9a9.43 9.43 0 0 1 .82-2.11 2.5 2.5 0 0 1 1-.85c-1.52-.44-3.08-.42-4 .85Zm59.68-152.62a8.63 8.63 0 0 0-2.16-4c-4.52-5.67-9.43-11.49-16.16-14.18a21 21 0 0 0-9.2-1.38 20.42 20.42 0 0 1 6.2 1.38c6.73 2.69 11.64 8.51 16.16 14.18a8.63 8.63 0 0 1 2.16 4c.57 4-2.75 8.15-3.85 11.85-.73 2.44-.52 4.73-.69 7.24-.47 6.58-3.89 13-10.33 15.5a7 7 0 0 0-2.08 1 4.15 4.15 0 0 0-.79 4.6 20.24 20.24 0 0 0 2.66 4.18 20.57 20.57 0 0 1 3.52 14.18c-1.2 9.57-9 17.41-9.84 27-.8 9 4.6 17.26 6.29 26.11 1.06 5.52.66 11.21.07 16.8-.9 8.59-2.4 17.55-7.67 24.39a12.17 12.17 0 0 1-4.44 3.85 9.94 9.94 0 0 1-3.27.81 12.93 12.93 0 0 0 6.27-.81 12.17 12.17 0 0 0 4.47-3.78c5.27-6.84 6.77-15.8 7.67-24.39.59-5.59 1-11.28-.07-16.8-1.69-8.85-7.09-17.14-6.29-26.11.86-9.61 8.64-17.45 9.84-27a20.57 20.57 0 0 0-3.52-14.18 20.24 20.24 0 0 1-2.66-4.18 4.15 4.15 0 0 1 .79-4.6 7 7 0 0 1 2.08-1c6.44-2.48 9.86-8.92 10.33-15.5.17-2.51 0-4.8.69-7.24 1.07-3.77 4.39-7.89 3.82-11.92Zm-37.86 352.92a13.51 13.51 0 0 0 13.83 3.82m50.25 167.18a8.49 8.49 0 0 1-6.9 1.74" opacity=".1"/><ellipse cx="105.15" cy="655.8" rx="26.93" ry="4.55" fill="#6c63ff" opacity=".1"/><ellipse cx="842.43" cy="746.4" rx="26.93" ry="4.55" fill="#6c63ff"/><ellipse cx="842.43" cy="658.82" rx="26.93" ry="4.55" fill="#6c63ff" opacity=".1"/><ellipse cx="181.51" cy="698.05" rx="26.93" ry="4.55" fill="#6c63ff" opacity=".1"/><ellipse cx="927.6" cy="698.05" rx="40.21" ry="6.8" fill="#6c63ff"/><ellipse cx="349.46" cy="751.28" rx="90.76" ry="15.34" fill="#6c63ff" opacity=".1"/><path d="M944.22 686.93a11.73 11.73 0 0 0 3.84-5.79c.49-2.3-.49-5.05-2.68-5.89-2.46-.94-5.09.76-7.08 2.49s-4.28 3.68-6.89 3.32a10.47 10.47 0 0 0 3.24-9.81 4.11 4.11 0 0 0-.9-2c-1.37-1.46-3.84-.83-5.48.32-5.2 3.66-6.65 10.72-6.68 17.08-.52-2.29-.08-4.68-.09-7s-.66-5-2.64-6.23a8.07 8.07 0 0 0-4-1c-2.34-.08-4.94.15-6.54 1.86-2 2.13-1.47 5.69.26 8s4.35 3.8 6.76 5.42a15 15 0 0 1 4.84 4.61 5.08 5.08 0 0 1 .36.82h14.65a40.73 40.73 0 0 0 9.03-6.2Zm-85.16 48.59a11.71 11.71 0 0 0 3.83-5.79c.49-2.3-.48-5-2.68-5.89-2.46-.94-5.09.76-7.08 2.49s-4.28 3.68-6.89 3.32a10.47 10.47 0 0 0 3.24-9.81 4 4 0 0 0-.9-2c-1.36-1.46-3.84-.83-5.47.32-5.2 3.66-6.65 10.72-6.68 17.08-.53-2.29-.09-4.68-.1-7s-.66-5-2.64-6.23a8 8 0 0 0-4-.95c-2.34-.08-4.94.15-6.54 1.86-2 2.13-1.47 5.69.26 8s4.35 3.8 6.77 5.42a15 15 0 0 1 4.83 4.61 5.08 5.08 0 0 1 .36.82h14.65a41 41 0 0 0 9.04-6.25Z" fill="#6c63ff"/><path d="M212.01 645.31s-14.05-47.71 2.64-82.82a75.36 75.36 0 0 0 6.12-47.3 126.56 126.56 0 0 0-6.69-22.19" fill="none" stroke="#535461" stroke-miterlimit="10" stroke-width="2"/><path d="M224.43 470.81c0 5.85-10.59 22.8-10.59 22.8s-10.58-16.95-10.58-22.8a10.59 10.59 0 1 1 21.17 0Zm17.5 32.39c-3.18 4.9-21.28 13.38-21.28 13.38s.33-20 3.51-24.89a10.59 10.59 0 0 1 17.77 11.51Zm-.76 55.34c-5.22 2.64-25.13.82-25.13.82s10.37-17.09 15.59-19.72a10.59 10.59 0 0 1 9.54 18.9Zm-10.01 41.77c-4.7 3.47-24.63 5-24.63 5s7.34-18.6 12-22.08a10.59 10.59 0 0 1 12.59 17Zm-32.74-82.59c4.2 4.07 23.73 8.29 23.73 8.29s-4.78-19.41-9-23.48a10.59 10.59 0 0 0-14.75 15.19Zm-11.08 48.97c5.22 2.63 25.12.81 25.12.81s-10.37-17.09-15.59-19.72a10.59 10.59 0 0 0-9.53 18.91Zm-4.25 49.07c4.7 3.48 24.63 5 24.63 5s-7.34-18.6-12-22.07a10.59 10.59 0 0 0-12.59 17Z" fill="#6c63ff"/><path d="M178.77 642.31s17.11-3.4 21.68-7.93 25.09-12.45 27.37-6.79 30.8 24.91 11.41 28.31-45.63 4.53-51.33 2.27-9.13-15.86-9.13-15.86Z" fill="#a8a8a8"/><path d="M239.26 653.77c-19.39 3.4-45.63 4.53-51.33 2.26-4.35-1.72-7.37-10-8.56-13.87l-.6.15s3.42 13.59 9.13 15.86 31.94 1.13 51.33-2.27c5.6-1 7.2-3.28 6.6-6.2-.45 1.87-2.4 3.34-6.57 4.07Z" opacity=".2"/><path d="M847.94 593.22s5.5 7.19-2.53 18-14.65 20-12 26.77c0 0 12.12-20.15 22-20.43s3.36-12.25-7.47-24.34Z" fill="#6c63ff"/><path d="M847.94 593.22a9 9 0 0 1 1.13 2.26c9.62 11.3 14.74 21.85 5.49 22.11-8.61.25-18.94 15.65-21.42 19.54a9.24 9.24 0 0 0 .29.89s12.12-20.15 22-20.43 3.34-12.28-7.49-24.37Z" opacity=".1"/><path d="M858.16 602.38c0 2.53-.29 4.58-.64 4.58s-.63-2-.63-4.58.35-1.34.7-1.34.57-1.19.57 1.34Z" fill="#ffd037"/><path d="M861.66 605.4c-2.22 1.21-4.16 1.94-4.32 1.63s1.49-1.53 3.71-2.74 1.35-.33 1.52 0 1.31-.1-.91 1.11Z" fill="#ffd037"/><path d="M818.93 593.22s-5.5 7.19 2.53 18 14.65 20 12 26.77c0 0-12.11-20.15-22-20.43s-3.38-12.25 7.47-24.34Z" fill="#6c63ff"/><path d="M818.93 593.22a9 9 0 0 0-1.13 2.26c-9.62 11.3-14.74 21.85-5.49 22.11 8.61.25 18.94 15.65 21.42 19.54a7.16 7.16 0 0 1-.3.89s-12.11-20.15-22-20.43-3.35-12.28 7.5-24.37Z" opacity=".1"/><path d="M808.71 602.38c0 2.53.29 4.58.64 4.58s.63-2 .63-4.58-.35-1.34-.7-1.34-.57-1.19-.57 1.34Z" fill="#ffd037"/><path d="M805.21 605.4c2.22 1.21 4.15 1.94 4.32 1.63s-1.49-1.53-3.71-2.74-1.35-.33-1.52 0-1.31-.1.91 1.11Z" fill="#ffd037"/><path d="M810.46 637.08s15.36-.48 20-3.77 23.63-7.23 24.78-2 23.08 26.29 5.74 26.43-40.29-2.7-44.91-5.51-5.61-15.15-5.61-15.15Z" fill="#a8a8a8"/><path d="M861.28 655.95c-17.34.14-40.29-2.7-44.91-5.51-3.52-2.14-4.93-9.83-5.39-13.38h-.52s1 12.39 5.6 15.2 27.57 5.65 44.91 5.51c5 0 6.73-1.82 6.64-4.45-.7 1.61-2.61 2.6-6.33 2.63Z" opacity=".2"/></svg>