<svg width="529.19" height="400.11" xmlns="http://www.w3.org/2000/svg"><path d="M91.43 299 269 217.75 177.57 17 0 98.25Z" fill="#f2f2f2"/><path d="m62.48 181.9 133.91-61.88c.25-.12.45-.33.55-.6a1.05 1.05 0 0 0-1.42-1.33l-133.9 61.88c-.26.12-.46.33-.55.6s-.1.55.02.8c.12.26.33.46.59.56s.55.09.8-.03zm-7-17.99 133.91-59.95a1.06 1.06 0 0 0 .54-.57 1.01 1.01 0 0 0-.26-1.11 1.03 1.03 0 0 0-.75-.28.95.95 0 0 0-.4.1l-133.9 59.95a1.06 1.06 0 0 0-.55.57 1.01 1.01 0 0 0 .26 1.1 1 1 0 0 0 .75.27c.14 0 .27-.02.4-.08zm-7-15.01 133.9-61.88a1.06 1.06 0 0 0-.06-1.96 1.03 1.03 0 0 0-.8.03L47.6 146.98a1.07 1.07 0 0 0 .07 1.95c.26.1.55.09.8-.03zm-8.01-16.99 132.92-59.95a1.05 1.05 0 0 0 .54-.57 1.03 1.03 0 0 0-1.4-1.3L39.6 130.06a1.05 1.05 0 0 0-.55.57 1.03 1.03 0 0 0 1.4 1.29zm29.01 63.99 133.91-61.88a1.06 1.06 0 0 0-.07-1.96 1.03 1.03 0 0 0-.8.03l-133.9 61.88c-.26.12-.46.33-.55.6s-.1.55.02.8c.12.26.33.46.59.56s.55.09.8-.03zm-22.94-87.13 104.88-47.9a2.62 2.62 0 0 0 1.47-3.16 2.53 2.53 0 0 0-3.43-1.48L44.62 104.1a2.64 2.64 0 0 0-1.5 3.2 2.55 2.55 0 0 0 1.4 1.49 2.54 2.54 0 0 0 2.03-.03z" fill="#fff"/><path d="M448 98.25 270.43 17 179 217.75 356.57 299Z" fill="#f2f2f2"/><g fill="#fff"><path d="m385.52 181.9-133.91-61.88a1.06 1.06 0 0 1 .07-1.96 1.03 1.03 0 0 1 .8.03l133.9 61.88a1.05 1.05 0 0 1 .62 1 1.07 1.07 0 0 1-.33.74 1.02 1.02 0 0 1-.75.28.93.93 0 0 1-.4-.09zm7-17.99-133.91-59.95a1.04 1.04 0 0 1-.55-.57 1 1 0 0 1 .03-.79 1.06 1.06 0 0 1 1.39-.5l133.9 59.95a1.06 1.06 0 0 1 .55.57 1.01 1.01 0 0 1-.26 1.1 1.03 1.03 0 0 1-.75.28.93.93 0 0 1-.4-.09zm8.01-15.01L267.61 87.02a1.07 1.07 0 0 1 .07-1.95c.26-.1.54-.1.8.02l132.91 61.88c.25.12.45.33.54.6s.09.55-.03.8-.32.46-.58.56a.99.99 0 0 1-.79-.03zm8.98-16.99L274.62 71.96a1.07 1.07 0 0 1-.55-.57 1.01 1.01 0 0 1 .62-1.32 1.08 1.08 0 0 1 .8.03l134.9 59.95c.25.1.45.32.54.57a1 1 0 0 1-.02.78 1.06 1.06 0 0 1-1.4.51zm-29.99 63.99-133.91-61.88a1.08 1.08 0 0 1-.55-.6 1.05 1.05 0 0 1 1.42-1.33l133.9 61.89a1.05 1.05 0 0 1 .62 1 1.07 1.07 0 0 1-.33.73 1.02 1.02 0 0 1-.75.29 1.12 1.12 0 0 1-.4-.1zm21.94-87.13-104.88-47.9a2.62 2.62 0 0 1-1.47-3.16 2.53 2.53 0 0 1 3.43-1.48l104.84 47.88a2.64 2.64 0 0 1 1.5 3.2 2.54 2.54 0 0 1-3.43 1.46z"/><path d="M92 299h264V0H92z"/></g><path d="M92 299h264V0H92zm262.58-1.43H93.42V1.44h261.16z" fill="#cacaca"/><path d="M125.42 139h200.16a1.9 1.9 0 0 0 1-.29c.13-.09.24-.2.31-.33.07-.12.11-.25.11-.38s-.04-.26-.1-.38c-.08-.12-.18-.23-.32-.33s-.28-.16-.46-.21a1.96 1.96 0 0 0-.54-.08H125.42c-.38 0-.74.1-1 .3-.27.18-.42.43-.42.7s.15.52.41.7c.27.2.63.3 1.01.3zm0-23h200.16c.38 0 .74-.21 1-.59.27-.37.42-.88.42-1.41s-.15-1.04-.42-1.41c-.26-.38-.62-.59-1-.59H125.42c-.38 0-.74.21-1 .59-.27.37-.42.88-.42 1.41s.15 1.04.41 1.41c.27.38.63.59 1.01.59zm0-25h200.16a1.9 1.9 0 0 0 1-.29c.13-.09.24-.2.31-.33.07-.12.11-.25.11-.38s-.04-.26-.1-.38c-.08-.12-.18-.23-.32-.33s-.28-.16-.46-.21a1.96 1.96 0 0 0-.54-.08H125.42c-.38 0-.74.1-1 .3-.27.18-.42.44-.42.7s.15.52.41.7c.27.2.63.3 1.01.3zm0-24h200.16c.38 0 .74-.16 1-.44a1.55 1.55 0 0 0 0-2.12 1.39 1.39 0 0 0-1-.44H125.42c-.38 0-.74.16-1 .44a1.55 1.55 0 0 0 0 2.12c.26.28.62.44 1 .44zm0 95h200.16c.38 0 .74-.21 1-.59.27-.37.42-.88.42-1.41s-.15-1.04-.42-1.41c-.26-.38-.62-.59-1-.59H125.42c-.38 0-.74.21-1 .59-.27.37-.42.88-.42 1.41s.15 1.04.41 1.41c.27.38.63.59 1.01.59zm0 110h200.16c.38 0 .74-.21 1-.59.27-.37.42-.88.42-1.41s-.15-1.04-.42-1.41c-.26-.38-.62-.59-1-.59H125.42c-.38 0-.74.21-1 .59-.27.37-.42.88-.42 1.41s.15 1.04.41 1.41c.27.38.63.59 1.01.59z" fill="#e4e4e4"/><path d="M277.36 249H172.64c-.7 0-1.37-.28-1.87-.76s-.77-1.16-.77-1.85V185.6a2.6 2.6 0 0 1 2.64-2.6h104.72c.7 0 1.37.27 1.87.76.5.5.77 1.15.77 1.84v60.8a2.62 2.62 0 0 1-2.64 2.6z" fill="#fff"/><path d="M207.74 213.83a5.78 5.78 0 0 1 8.3-.15l29.26 29.24a4.13 4.13 0 0 0 5.82 0l4.34-4.31a5.79 5.79 0 0 1 8.15 0L272 247h-94v-1.2z" fill="#00baa8"/><path d="M172.64 249h104.72c.7 0 1.37-.28 1.87-.76s.77-1.16.77-1.85V185.6a2.6 2.6 0 0 0-.77-1.84 2.66 2.66 0 0 0-1.87-.76H172.64c-.7 0-1.37.27-1.87.76a2.6 2.6 0 0 0-.77 1.84v60.8a2.62 2.62 0 0 0 2.64 2.6zm104.72-64.26a.86.86 0 0 1 .88.87v60.78a.9.9 0 0 1-.26.62.89.89 0 0 1-.62.25H172.64a.89.89 0 0 1-.62-.25.86.86 0 0 1-.26-.62V185.6c0-.23.1-.45.26-.6a.89.89 0 0 1 .62-.26z" fill="#3f3d56"/><path d="M442 215.48a9.62 9.62 0 0 1 8.28-12.17l7.91-33.19 12.13 12.93-9.37 29.53a9.65 9.65 0 0 1-18.95 2.9z" fill="#d3b2b0"/><path d="M506.16 204.44a4.3 4.3 0 0 0 2.58-2.36l16.78-41.05a44.29 44.29 0 0 0 1.58-31.13l-10.76-33.68a13.84 13.84 0 1 0-27.55 2.52l14.26 54.24-9.55 42.6a4.31 4.31 0 0 0 2.1 4.47l7.07 4.04a4.3 4.3 0 0 0 3.49.35z" fill="#00d7ad"/><path d="M446.48 388.77h-11.7l-5.57-45.15h17.27z" fill="#d3b2b0"/><path d="M449.47 384.95h-23.05a14.68 14.68 0 0 0-14.68 14.69v.48h37.73z" fill="#1b5e57"/><path d="M512.34 388.77h-11.7l-5.57-45.15h17.27z" fill="#d3b2b0"/><path d="M515.33 384.95h-23.04a14.68 14.68 0 0 0-14.7 14.69v.48h37.74zM441.2 184.39l68.3-5.39s6.75 38.6 5.8 53.93-1.9 39.18-1.9 39.18L521 376l-29.45-3.41-3.8-86.01-12.35-46.84-14.25 59.61-9.5 76.65-25.65-2.56 8.55-92.83s-7.6-83.45 6.65-96.23z" fill="#1b5e57"/><path d="M465 64a22 22 0 1 1 0-44 22 22 0 0 1 0 44z" fill="#d3b2b0"/><path d="m446.21 83.62 13.63-10.85s14.77-11.4 23.43-2.97l3.89 5.56s22.04 8.26 22.04 18.77l-1.04 57.6s7.63 29.6-3.82 31.5l-66.72 5.41.86-55.04z" fill="#00d7ad"/><path d="M482.29 61s23.42-16.45 11.15-36.19c-8.5-13.7-26.14-12.6-36.15-10.66a16.95 16.95 0 0 0-12.36 9.56c-1.68 3.84-1.68 7.68 5.02 7.68 13.38 0 6.69 9.87 6.69 9.87s8.92 2.2 6.69 9.87C461.1 58.81 482.29 61 482.29 61z" fill="#181b0c"/><path d="M377.34 184.24a9.61 9.61 0 0 1 13.31-6.28l23.66-24.57 3.89 17.3-23.07 20.67a9.65 9.65 0 0 1-17.79-7.12z" fill="#d3b2b0"/><path d="M401.68 184.61a4.29 4.29 0 0 0 3.43-.72l35.29-26.85a44.27 44.27 0 0 0 17.15-26.01l7.84-34.48a13.85 13.85 0 1 0-25.02-11.82l-15.25 53.97-29.85 31.85a4.31 4.31 0 0 0-.46 4.91l4.04 7.08a4.3 4.3 0 0 0 2.83 2.07z" fill="#00d7ad"/><path d="M116.43 41h156.94c.88.02 1.73-.3 2.4-.87a3.66 3.66 0 0 0 1.21-2.27 3.57 3.57 0 0 0-.86-2.7 3.44 3.44 0 0 0-2.55-1.16h-156.9c-.88-.02-1.75.29-2.42.88s-1.12 1.4-1.24 2.3a3.56 3.56 0 0 0 .89 2.68 3.45 3.45 0 0 0 2.53 1.14z" fill="#00baa8"/></svg>