<svg data-name="Layer 1" xmlns="http://www.w3.org/2000/svg" width="921.67" height="831.3"><circle cx="436.47" cy="576.56" r="216.46" fill="#f2f2f2"/><ellipse cx="405.89" cy="803.23" rx="205.41" ry="28.06" fill="#3f3d56"/><ellipse cx="550.94" cy="262.31" rx="14.54" ry="7.06" transform="rotate(-18.58 376.35 670.52)" fill="#3f3d56"/><path d="m382.3 260.13 76.27-34.76s129.22-48.84 239.77 70.39c0 0-49.55-31.8-87.1 10.2 0 0-70.66-19.11-129.96 51.13 0 0-92.75 14.04-131.37 63.26 0 0-43.07-6.62-60.2 47.97a1.64 1.64 0 0 1-2.72.68 1.63 1.63 0 0 1-.46-.86c-1.6-8.44-20.55-120.99 95.77-208.01Z" fill="#6c63ff"/><path d="m382.3 260.13 76.27-34.76s129.22-48.84 239.77 70.39c0 0-49.55-31.8-87.1 10.2 0 0-70.66-19.11-129.96 51.13 0 0-92.75 14.04-131.37 63.26 0 0-43.07-6.62-60.2 47.97a1.64 1.64 0 0 1-2.72.68 1.63 1.63 0 0 1-.46-.86c-1.6-8.44-20.55-120.99 95.77-208.01Z" opacity=".2"/><path fill="#2f2e41" d="m405.52 404.13 31.77 5.29 10.58-50.29-25.58-10.59-16.77 55.59z"/><circle cx="449.2" cy="366.63" r="27.35" fill="#a0616a"/><path d="M437.29 382.07s2.64 33.52-17.65 36.17 17.65 62.64 27.35 61.76 27.35-65.29 27.35-65.29-22.94-15.88-15-30Zm-33.97 122.19s3.53 25.59 14.11 25.59-7.05-29.12-7.05-29.12Zm154.39 25.59s26.47 22.05 22.94 29.11-26.47-7.94-28.23-25.58Zm-159.69 84.69-16.76 62.64-18.53 75.88h17.65s6.18-23.82 17.64-36.17c0 0 11.47-19.41 11.47-32.65l27.35-64.4Zm72.35 3.53 5.3 59.11s-.89 42.35 0 52.06 0 23.82 0 23.82h15.87s15-52.06 10.6-80.29l6.17-66.17Z" fill="#a0616a"/><path d="M449.2 455.74s-23.77-18.84-17.62-45.15c0 0-23.85 1.03-33.56 10.74s2.65 42.35 2.65 42.35 21.18 35.29 17.65 51.17-41.47 99.7-29.12 104.99 87.35 23.82 125.28-7.06c0 0 9.7-87.34-29.11-115.58v-22.05s7.06-6.18 3.53-22.06c0 0 15-27.35 6.17-32.64s-29.09-13.05-29.09-13.05 1.74 39.51-16.78 48.34Z" fill="#2f2e41"/><path d="M403.32 421.33s-11.47-1.77-22.94 15-41.47 43.23-27.35 56.46 52.05 22.06 52.05 22.06l8.83-15.88-37.94-18.53 31.76-23.82Zm87.34 0s12.35 0 17.65 15 36.17 66.17 36.17 66.17l17.64 27.35-12.35 14.11-34.4-38.82-32.65-53.81ZM383.9 751.3h-24.7l-5.29 43.22s-14.11 22.94 7.06 20.3 14.12-26.47 14.12-26.47l5.29-8.82 1.76 18.52 1.77-.88v-20.3s9.7-8.81 0-25.58Zm112.06 0-22.94-1.77-4.41 49.4s-2.65 18.53 13.23 15.89 10.59-17.65 10.59-17.65v-27.35Zm-66.62-412.46s-12.85 4.28-13.5 21.2a30.01 30.01 0 0 0 .9 8.04c.72 3.06 1.18 9.66-4.43 18.29a181.06 181.06 0 0 0-10.27 17.67l-.05.09 14.12 1.76 3-23.4a116.52 116.52 0 0 1 9.25-32.85l.1-.21s6.18 11.46 18.53 11.46l-4.41-4.4s19.4 7.93 26.47 7.93c0 0 5.29 3.53 0 8.83s-15.88 17.64-9.7 27.35.87 12.35.87 12.35l9.7-5.3 4.42-2.64v3.53l22.94-2.65s6.17-.88-7.06-15.88c0 0-3.5-5.83-1.97-10.85a25.34 25.34 0 0 0 .97-11.85c-2.97-16.54-14.6-49.42-59.88-28.47Z" fill="#2f2e41"/><path d="M567.3 557.4c8.74-8.88-.93-27.27-1.69-28.66l-99.7-203.6a2.6 2.6 0 0 0-4.66 2.29L561 531.12l.03.05c.1.18 9.72 18.47 1.15 23.7-9.23 5.65-20-3.5-20.1-3.59a2.6 2.6 0 1 0-3.4 3.93c.55.48 13.78 11.7 26.2 4.1a12.58 12.58 0 0 0 2.43-1.91Z" fill="#3f3d56"/><path d="m375.16 245.53 73.88-33.66s125.15-47.3 232.21 68.17c0 0-47.98-30.8-84.35 9.88 0 0-68.44-18.51-125.87 49.52 0 0-89.83 13.6-127.24 61.27 0 0-43-6.61-59.06 48.95l-2.22-2.18s-24.45-114.33 92.65-201.95Z" fill="#6c63ff"/><path d="M375.53 245.32s-36.18 121.75-31.76 155.28m69.99-172.66s45.58 102.96 57.05 111.78M448.75 211.8s117.34 70.57 148.22 78.51M272.34 798.55c-.21-.35-5.21-8.7-6.94-26.03-1.6-15.9-.57-42.72 13.33-80.11 26.34-70.84-6.07-128-6.4-128.57l1.6-.93c.08.15 8.45 14.72 13.39 37.93a165.45 165.45 0 0 1-6.86 92.21c-26.29 70.72-6.74 104.2-6.54 104.53Z" fill="#3f3d56"/><circle cx="262.04" cy="547.67" r="12.01" fill="#3f3d56"/><circle cx="299.93" cy="592.02" r="12.01" fill="#3f3d56"/><circle cx="274.05" cy="621.59" r="12.01" fill="#6c63ff"/><circle cx="305.47" cy="646.53" r="12.01" fill="#6c63ff"/><circle cx="264.81" cy="685.34" r="12.01" fill="#3f3d56"/><path d="M279.6 798.99s-12.01-29.57 24.02-51.74Zm-14.77-.54s-5.47-31.44-47.78-31.17ZM191.76 0l42.28 23.13-81.92 54.26-39.18-25.85L191.76 0zM90.09 73.49 0 131.57l41.84 24.87 90.05-60.12-41.8-22.83z" fill="#3f3d56"/><path d="M106.67 44.67a35.5 35.5 0 0 0-19.11 24.2A10.5 10.5 0 0 0 91 79.37l26.04 22a12.07 12.07 0 0 0 13.65 1.31c10.6-5.87 27.6-18.2 20-33.8a10.8 10.8 0 0 0-3.75-4.28L117.9 45.4a11.33 11.33 0 0 0-11.24-.73Z" fill="#d0cde1"/><ellipse cx="301.39" cy="130.98" rx="42.84" ry="29.09" transform="rotate(-53.33 197.6 252.37)" fill="#3f3d56"/><path d="M148.96 130.5c5.28 3.94 17.84-3.81 29.13-17.57q1.5-1.83 2.97-3.8 1.07-1.43 2.07-2.88c10.46-15.12 14.6-29.96 9.2-33.98-5.45-4.06-18.63 4.3-30.18 18.87q-.97 1.22-1.92 2.5a98.9 98.9 0 0 0-6.06 9.13c-7.44 12.78-9.86 24.27-5.2 27.74Z" opacity=".2"/><path d="m154.17 102.77 23.92 10.16 17.12 7.26 2.53-3.41-14.61-10.53-20.98-15.11q-.97 1.22-1.92 2.5a98.9 98.9 0 0 0-6.06 9.13Z" fill="#d0cde1"/><circle cx="199.84" cy="120.82" r="5.2" fill="#d0cde1"/><path d="M201.37 175.74a2.48 2.48 0 0 1 1.18-.6c28-5.79 45.62-21.91 53.86-49.29a2.5 2.5 0 0 1 4.77 1.44c-8.7 28.88-28.08 46.62-57.63 52.73a2.5 2.5 0 0 1-2.18-4.28Zm-6.89-21.68a2.48 2.48 0 0 1 1.17-.6c21-4.34 34.21-16.42 40.4-36.95a2.5 2.5 0 0 1 4.76 1.43c-6.66 22.13-21.51 35.72-44.15 40.4a2.5 2.5 0 0 1-2.18-4.28Zm17.07 43.88a2.48 2.48 0 0 1 1.18-.6c27.94-5.78 58.5-33.74 66.73-61.06a2.5 2.5 0 0 1 4.77 1.43c-8.7 28.87-40.97 58.4-70.5 64.5a2.5 2.5 0 0 1-2.18-4.27Z" fill="#6c63ff"/><path fill="#3f3d56" d="m729.91 0-42.28 23.13 81.92 54.26 39.18-25.85L729.91 0zm101.67 73.49 90.09 58.08-41.84 24.87-90.05-60.12 41.8-22.83z"/><path d="M815 44.67a35.5 35.5 0 0 1 19.11 24.2 10.5 10.5 0 0 1-3.44 10.5l-26.04 22a12.07 12.07 0 0 1-13.65 1.31c-10.6-5.87-27.6-18.2-20-33.8a10.8 10.8 0 0 1 3.76-4.28l29.02-19.2a11.33 11.33 0 0 1 11.24-.73Z" fill="#d0cde1"/><ellipse cx="898.61" cy="130.98" rx="29.09" ry="42.84" transform="rotate(-36.67 777.2 323.78)" fill="#3f3d56"/><path d="M772.7 130.5c-5.27 3.94-17.83-3.81-29.12-17.57q-1.5-1.83-2.97-3.8-1.07-1.43-2.07-2.88c-10.46-15.12-14.6-29.96-9.2-33.98 5.45-4.06 18.63 4.3 30.18 18.87q.97 1.22 1.92 2.5a98.9 98.9 0 0 1 6.06 9.13c7.44 12.78 9.86 24.27 5.2 27.74Z" opacity=".2"/><path d="m767.5 102.77-23.92 10.16-17.11 7.26-2.54-3.41 14.61-10.53 20.98-15.11q.97 1.22 1.92 2.5a98.9 98.9 0 0 1 6.06 9.13Z" fill="#d0cde1"/><circle cx="721.83" cy="120.82" r="5.2" fill="#d0cde1"/><path d="M720.3 175.74a2.48 2.48 0 0 0-1.18-.6c-28-5.79-45.62-21.91-53.86-49.29a2.5 2.5 0 0 0-4.77 1.44c8.7 28.88 28.08 46.62 57.63 52.73a2.5 2.5 0 0 0 2.18-4.28Zm6.9-21.68a2.48 2.48 0 0 0-1.18-.6c-21-4.34-34.21-16.42-40.4-36.95a2.5 2.5 0 0 0-4.76 1.43c6.66 22.13 21.51 35.72 44.15 40.4a2.5 2.5 0 0 0 2.18-4.28Zm-17.08 43.88a2.48 2.48 0 0 0-1.18-.6c-27.94-5.78-58.5-33.74-66.73-61.06a2.5 2.5 0 0 0-4.77 1.43c8.7 28.87 40.97 58.4 70.5 64.5a2.5 2.5 0 0 0 2.18-4.27Z" fill="#6c63ff"/></svg>