<svg data-name="Layer 1" xmlns="http://www.w3.org/2000/svg" width="722.11" height="558.15"><path d="M653.6 534H68.52a68.5 68.5 0 0 1-66.9-83.2L27.75 332h666.61l26.13 118.8a68.5 68.5 0 0 1-66.9 83.2ZM29.36 334 3.57 451.22A66.5 66.5 0 0 0 68.52 532H653.6a66.5 66.5 0 0 0 64.94-80.78L692.75 334Z" fill="#f2f2f2"/><path d="M579.3 78.38 610 73.8l-4.85-21.34-18.4 9.26-37.96-14.3a7.72 7.72 0 1 0-5.05 10.2Z" fill="#ffb6b6"/><path d="M641.68 62.42c-2.37 9-57.04 19.14-57.02 17.2.08-5.54 3.6-17.14 1.59-20.15-1.15-1.72 14.31-6.12 14.31-6.12s8.54-3.29 19.6-7.3a19.72 19.72 0 0 1 18.85 2.6s5.05 4.77 2.67 13.77Z" fill="#00d7ad"/><path d="M112.77 437h-19a16 16 0 0 0 0 32h19a16 16 0 0 0 0-32Zm61 0h-19a16 16 0 0 0 0 32h19a16 16 0 0 0 0-32Zm61 0h-19a16 16 0 0 0 0 32h19a16 16 0 0 0 0-32Zm61 0h-19a16 16 0 0 0 0 32h19a16 16 0 0 0 0-32Zm61 0h-19a16 16 0 0 0 0 32h19a16 16 0 0 0 0-32Zm61 0h-19a16 16 0 0 0 0 32h19a16 16 0 0 0 0-32Zm61 0h-19a16 16 0 0 0 0 32h19a16 16 0 0 0 0-32Zm61 0h-19a16 16 0 0 0 0 32h19a16 16 0 0 0 0-32Zm61 0h-19a16 16 0 0 0 0 32h19a16 16 0 0 0 0-32Zm-488-67h-19a16 16 0 0 0 0 32h19a16 16 0 0 0 0-32Zm61 0h-19a16 16 0 0 0 0 32h19a16 16 0 0 0 0-32Z" fill="#e6e6e6"/><path d="M234.77 370h-19a16 16 0 0 0 0 32h19a16 16 0 0 0 0-32Z" fill="#00d7ad"/><path d="M295.77 370h-19a16 16 0 0 0 0 32h19a16 16 0 0 0 0-32Zm61 0h-19a16 16 0 0 0 0 32h19a16 16 0 0 0 0-32Zm61 0h-19a16 16 0 0 0 0 32h19a16 16 0 0 0 0-32Zm61 0h-19a16 16 0 0 0 0 32h19a16 16 0 0 0 0-32Zm61 0h-19a16 16 0 0 0 0 32h19a16 16 0 0 0 0-32Zm61 0h-19a16 16 0 0 0 0 32h19a16 16 0 0 0 0-32Zm-459.5 34.5h-19a16 16 0 0 0 0 32h19a16 16 0 0 0 0-32Zm61 0h-19a16 16 0 0 0 0 32h19a16 16 0 0 0 0-32Zm61 0h-19a16 16 0 0 0 0 32h19a16 16 0 0 0 0-32Zm61 0h-19a16 16 0 0 0 0 32h19a16 16 0 0 0 0-32Zm61 0h-19a16 16 0 0 0 0 32h19a16 16 0 0 0 0-32Zm61 0h-19a16 16 0 0 0 0 32h19a16 16 0 0 0 0-32Zm61 0h-19a16 16 0 0 0 0 32h19a16 16 0 0 0 0-32Zm61 0h-19a16 16 0 0 0 0 32h19a16 16 0 0 0 0-32Zm61 0h-19a16 16 0 0 0 0 32h19a16 16 0 0 0 0-32Z" fill="#e6e6e6"/><path d="M558.9 333H164.14a23.64 23.64 0 0 1-23.62-23.62l.02-.22c13.97-60.43 13.96-136.19-.01-238.4l-.01-.14A23.65 23.65 0 0 1 164.14 47H558.9a23.65 23.65 0 0 1 23.62 23.62l-.03.2a566.87 566.87 0 0 0 0 238.35l.03.21A23.64 23.64 0 0 1 558.9 333Z" fill="#fff"/><path d="M558.9 333H164.14a23.64 23.64 0 0 1-23.62-23.62l.02-.22c13.97-60.43 13.96-136.19-.01-238.4l-.01-.14A23.65 23.65 0 0 1 164.14 47H558.9a23.65 23.65 0 0 1 23.62 23.62l-.03.2a566.87 566.87 0 0 0 0 238.35l.03.21A23.64 23.64 0 0 1 558.9 333Zm-416.38-23.5a21.64 21.64 0 0 0 21.62 21.5H558.9a21.64 21.64 0 0 0 21.62-21.51 568.84 568.84 0 0 1 0-238.98A21.64 21.64 0 0 0 558.9 49H164.14a21.64 21.64 0 0 0-21.62 21.55c13.99 102.37 14 178.3 0 238.94Z" fill="#e6e6e6"/><path d="M517.52 117.5h-319a6.5 6.5 0 0 1 0-13h319a6.5 6.5 0 0 1 0 13Zm0 31.5h-319a6.5 6.5 0 0 1 0-13h319a6.5 6.5 0 0 1 0 13Zm0 31.5h-319a6.5 6.5 0 0 1 0-13h319a6.5 6.5 0 0 1 0 13Zm0 31.5h-319a6.5 6.5 0 0 1 0-13h319a6.5 6.5 0 0 1 0 13Zm0 31.5h-319a6.5 6.5 0 0 1 0-13h319a6.5 6.5 0 0 1 0 13Z" fill="#e6e6e6"/><path d="M341.52 275h-143a6.5 6.5 0 0 1 0-13h143a6.5 6.5 0 0 1 0 13Z" fill="#00d7ad"/><path d="M359.7 324.5h-26.32a2.66 2.66 0 0 1-2.07-1.02 3.17 3.17 0 0 1-.6-2.65l12.38-56.05a2.7 2.7 0 0 1 5.32-.08l13.94 56.05a3.17 3.17 0 0 1-.56 2.7 2.66 2.66 0 0 1-2.1 1.05Z" fill="#e6e6e6"/><path d="M690.52 345.5h-658a13.5 13.5 0 0 1 0-27h658a13.5 13.5 0 0 1 0 27Z" fill="#f2f2f2"/><path fill="#ffb6b6" d="M607.19 311.69h-9.6l-4.57-37.03h14.18l-.01 37.03z"/><path d="M609.64 321h-30.96v-.4a12.05 12.05 0 0 1 12.05-12.04l5.66-4.3 10.55 4.3h2.7Z" fill="#2f2e41"/><path fill="#ffb6b6" d="m693.95 299.21-8.59 4.28-20.61-31.11 12.68-6.32 16.52 33.15z"/><path d="m700.3 306.45-27.72 13.8-.17-.34a12.05 12.05 0 0 1 5.4-16.16h.01l3.15-6.37 11.36-.86 2.41-1.2ZM602.94 143.5l52.94 1.85 3.96 7.35s4.15 30.08 2.03 32.2-3.19 2.12-2.13 5.84 3.8 39.22 3.8 39.22 21.88 45.37 22.94 48.02 2.13 1.6 1.06 2.66a39.1 39.1 0 0 0-2.65 3.18h-17.3s-9.32-23.5-17.85-32.6a51.64 51.64 0 0 1-13.61-29.17l-7.18-33.96-15.4 52.02s-2.65 51.5-2.12 54.15l.53 2.65-20.4.23s-2.12-4.47-1.05-6.07 1-1.15-.3-3.76-.77-7.02-.77-7.02 7.66-104.41 7.66-106a5.3 5.3 0 0 0-.44-2.4v-2.16l2.03-7.66Z" fill="#2f2e41"/><path d="M625.77 47.43c-3.45 2.05-5.51 5.81-6.7 9.64a91.39 91.39 0 0 0-3.92 21.84l-1.25 22.19a91.35 91.35 0 0 1-11.63 40.78 7.13 7.13 0 0 0 4.46 10.32c19.19 5.04 55.53-1.28 55.53-1.28s1.55-.52 0-2.07-5.02-9.29-5.02-9.29l4.13-27.11 5.16-54.7c-6.2-7.74-18.64-12.3-18.64-12.3l-3.22-5.8-16.09 1.3Z" fill="#00d7ad"/><circle cx="635.98" cy="20.83" r="15.46" fill="#ffb8b8"/><path d="M655.02 19.92a26.88 26.88 0 0 1-3.67 8.8 6 6 0 0 1-2 2.28 2.2 2.2 0 0 1-2.8-.35l-.37-.3a7.98 7.98 0 0 0 1.95-1.7 2.72 2.72 0 0 0 .52-2.43 1.67 1.67 0 0 0-2.04-1.09c-.9.36-1.46 1.66-2.4 1.46-.77-.16-.93-1.17-.93-1.97.03-4.15-1.98-10.04-3.53-9.86a12.52 12.52 0 0 1-4.63-.62 12.13 12.13 0 0 0-4.64-.6l-.34.06a10.27 10.27 0 0 0-1.03-2.25 12.01 12.01 0 0 1-.13 2.55 23.83 23.83 0 0 1-3.85 1.22c-1.44.2-4.59 4.49-4.74 4.05a10.27 10.27 0 0 0-1.03-2.25 12.01 12.01 0 0 1-.12 2.55c0 .04 0 .06-.02.1-.7-.93-1.12-2.06-.88-1.2-2.33-5.27-1.43-9.05 2.24-13.5a7.06 7.06 0 0 1 2.75-2.2 3.47 3.47 0 0 1 3.39.33A11.38 11.38 0 0 1 638 .59c3.82 1.33 6.76 2.1 7.35 6.12a8.5 8.5 0 0 1 8.15 3.97 12.85 12.85 0 0 1 1.51 9.24Z" fill="#2f2e41"/><path d="m671.52 120.35.02-31.03-21.83 1.63 6.44 19.57-19.78 35.42a7.72 7.72 0 1 0 9.34 6.5Z" fill="#ffb6b6"/><path d="M664.98 56.3c8.54 3.67 10.47 59.25 8.55 58.93-5.46-.9-16.41-6.09-19.69-4.55-1.87.88-3.93-15.06-3.93-15.06s-1.98-8.93-4.3-20.46a19.72 19.72 0 0 1 5.36-18.26s5.46-4.29 14-.6Z" fill="#00d7ad"/><path d="M137.34 399.2a5.24 5.24 0 0 1 .34-8.04l-5.87-17.66 9.35 2.5 4.13 16.4a5.27 5.27 0 0 1-7.95 6.8Z" fill="#ffb6b6"/><path d="M154.27 303.2c1.55.88 10.72-1.32 12.51-.7-.98 6.04 4.39 3.78-1.45 11.7s-17.57 31.68-20.24 40.56-.03 21.39-.43 25.6a43.67 43.67 0 0 0 .04 7.32c-3.15-.04-6.26.61-9.46.2-3.41-9.66-5.7-23.4-7.27-31s-1.61-4.39-.9-8.19.9-1.03.14-4.67 2.29-8.2 5.1-10.8c1.2-3.48 2.76-6.72 3.96-10.17 8.78-7.65 9.35-12.07 18-19.86Z" fill="#3f3d56"/><path d="M236.4 387.99a5.24 5.24 0 0 1-5.97-5.37l-17.37-6.7 7.87-5.61 15.29 7.22a5.27 5.27 0 0 1 .18 10.46Z" fill="#ffb6b6"/><path d="M173.05 313.9c1.68-.63 5.8-9.11 7.43-10.1 4.03 4.6 5.7-.98 8.1 8.56s13.29 33.7 18.45 41.4 16.5 13.62 19.49 16.6a43.67 43.67 0 0 0 5.67 4.63c-2.03 2.41-3.5 5.22-5.85 7.43-9.63-3.5-21.7-10.47-28.55-14.1s-4.42-1.53-6.9-4.5-.23-1.35-3.51-3.08-4.88-6.97-5.11-10.8c-1.92-3.14-3.43-6.4-5.32-9.52-.34-11.64-3.38-14.9-3.9-26.52Z" fill="#3f3d56"/><path fill="#ffb6b6" d="m186.12 366.39 8.67 38.68-55.54-3.45 15.1-37.99 31.77 2.76zm-9.25 178.53h6.24l2.97-24.07h-9.21v24.07z"/><path d="m174.76 541.84 9.86-.59v4.23l9.38 6.47a2.64 2.64 0 0 1-1.5 4.81h-11.74l-2.03-4.18-.79 4.18h-4.42Z" fill="#2f2e41"/><path fill="#ffb6b6" d="m117.91 541.81 6.09 1.33 8.01-22.89-9-1.96-5.1 23.52z"/><path d="m116.5 538.36 9.76 1.51-.9 4.13 7.8 8.32a2.64 2.64 0 0 1-2.5 4.38l-11.47-2.49-1.1-4.51-1.65 3.92-4.33-.94Zm79.7-100.94c-4.37 24.06-5.46 34.45-5.46 34.45s3.28 3.83 1.09 6.02 0 6.56 0 6.56l-4.92 53.05-3.97-.64-9.54-1.53-3.45-.56 2.2-49.77s-2.2-4.38-1.1-5.47c1.1-1.1-1.1-7.66-1.1-7.66l-2.73-51.96-16.96 56.88s1.65 2.2 0 3.83c-1.64 1.64-4.91 9.85-4.91 9.85l-10.09 35.29-.86 3-5.25-1-5.73-1.07-1.05-.2-1.87-.35-1.2-.23-.42-.07-1.98-.37.6-2.66.31-1.4 8.53-37.9.2-.87.2-.92s-1.09-2.74.55-4.38a4.27 4.27 0 0 0 1.1-3.83 1.5 1.5 0 0 1-.15-.18 2.27 2.27 0 0 1-.4-.9 2.96 2.96 0 0 1 1.1-2.75 4.67 4.67 0 0 0 .77-1.11c1.67-3.15 2.5-9.82 2.5-9.82s1.49-52.85 6.33-60.92c.26-.42 5.4-8.52 5.67-8.69 5.46-3.28 48.06 1.25 48.06 1.25s2.58 6.93 2.7 7.65c.63 4.06 4.95 18.96 1.24 39.38Z" fill="#2f2e41"/><path d="M183.27 310.13s.92-4.79-7.94-13.64c-4.69-1.57-12.81-.65-15.63 0-13.02 17.19-10.69 14.16-14.08 23.76a13.53 13.53 0 0 0-.93 6.84c1.56 7.81 4.1 47.93 3.58 50.01s-4.17 4.69-.52 4.69 50.68-.82 49.63-2.39-14.11-69.27-14.11-69.27Z" fill="#3f3d56"/><circle cx="168.58" cy="278.54" r="14.94" fill="#ffb6b6"/><path d="M155.92 284.2c-.08 1.8-1.22 3.37-2.1 4.95a19.79 19.79 0 0 0-.18 18.46c1.22 2.31 2.91 4.38 3.88 6.8a7.73 7.73 0 0 1-.06 6.53c-2.62-2.52-3.9-1.19-6.87-3.39 1.17 3.28.17 3.38 1.35 6.66l-15.15 4.33a18.25 18.25 0 0 0 5.22-21.48c-1.84-3.96-5.14-7.22-6.34-11.43a12.4 12.4 0 0 1 17.04-14.71c1.7-.48 3.3 1.49 3.21 3.27Z" fill="#2f2e41"/><path d="M174.68 261.8c-2-4.39-7.3-3.5-12.1-2.91a14.9 14.9 0 0 0-11.16 8.28 20.35 20.35 0 0 0-1.1 14.12 15.48 15.48 0 0 0 4.89 8.24c2.53 2.04 14.42 6.85 15.42 2.7-1.24 5.41-4.46 8.5-.78 12.64 1.91-5.74 9.99-11.19 11.9-16.92.29-.87-.9-11.02-.6-11.88.6-1.82 1.2-3.64 1.64-5.51.55-2.35.76-5.04-.7-6.96s-5.12-2-5.86.3" fill="#2f2e41"/><path d="m172.28 280.07-.64-4.06c.43-5.06-.27-13.1 3.04-14.2l2.03 2.02c-1.28.43-3.72 7.99-4.43 16.24Z" fill="#ff6584"/><path d="M317.79 556.96a1.19 1.19 0 0 1-1.2 1.2H36.32a1.19 1.19 0 1 1 0-2.39H316.6a1.19 1.19 0 0 1 1.19 1.2Z" fill="#ccc"/><path d="M464.52 483h-206a16 16 0 0 0 0 32h206a16 16 0 0 0 0-32Z" fill="#e6e6e6"/></svg>